<?xml version="1.0" standalone="no"?><!DOCTYPE svg PUBLIC "-//W3C//DTD SVG 1.1//EN" "http://www.w3.org/Graphics/SVG/1.1/DTD/svg11.dtd"><svg t="1535690224689" class="icon" style="" viewBox="0 0 1024 1024" version="1.1" xmlns="http://www.w3.org/2000/svg" p-id="1098" xmlns:xlink="http://www.w3.org/1999/xlink" width="200" height="200"><defs><style type="text/css"></style></defs><path d="M381.205547 971.690667C285.845547 938.922667 204.053547 873.024 149.333547 784.96L184.064213 746.666667c46.826667 80.512 118.72 141.674667 203.562667 173.226666 9.28-12.373333 23.488-19.626667 38.528-19.605333h122.261333c17.493333 0 33.621333 9.749333 42.368 25.6 8.746667 15.829333 8.746667 35.349333 0 51.2-8.746667 15.829333-24.896 25.6-42.368 25.578667h-122.261333c-19.562667 0-37.226667-12.16-44.949333-30.976z" fill="#ffffff" p-id="1099"></path><path d="M923.17888 440.917333c58.304 10.410667 100.821333 61.866667 100.821333 122.026667v123.84c0 32.853333-12.842667 64.362667-35.712 87.594667A120.938667 120.938667 0 0 1 902.101547 810.666667H853.333547c-40.384 0-73.152-33.28-73.152-74.325334V513.386667c0-41.045333 32.768-74.325333 73.152-74.325334h20.906666c-12.544-193.706667-171.136-346.837333-364.928-346.837333-193.770667 0-352.341333 153.152-364.906666 346.837333H170.66688c40.405333 0 73.152 33.28 73.152 74.325334v222.954666C243.81888 777.386667 211.072213 810.666667 170.66688 810.666667H121.89888a120.938667 120.938667 0 0 1-86.186667-36.266667A124.885333 124.885333 0 0 1 0.000213 686.762667v-123.861334c0-58.026667 39.658667-108.288 95.402667-120.917333C106.53888 219.52 287.616213 42.666667 509.312213 42.666667c221.354667 0 402.176 176.298667 413.866667 398.250666z m-801.28 47.68c-40.384 0-73.130667 33.28-73.130667 74.325334v123.861333c0 41.066667 32.746667 74.325333 73.130667 74.325333h24.384c26.922667 0 48.768-22.186667 48.768-49.536v-173.44c0-27.349333-21.845333-49.536-48.768-49.536H121.89888z m780.202667 0h-24.384c-26.922667 0-48.768 22.186667-48.768 49.557334v173.418666c0 27.370667 21.845333 49.536 48.768 49.536h24.384c40.384 0 73.130667-33.28 73.130666-74.325333v-123.861333c0-41.045333-32.746667-74.325333-73.130666-74.325334z" fill="#ffffff" p-id="1100"></path></svg>