<?xml version="1.0" standalone="no"?><!DOCTYPE svg PUBLIC "-//W3C//DTD SVG 1.1//EN" "http://www.w3.org/Graphics/SVG/1.1/DTD/svg11.dtd"><svg t="1535690236260" class="icon" style="" viewBox="0 0 1024 1024" version="1.1" xmlns="http://www.w3.org/2000/svg" p-id="1439" xmlns:xlink="http://www.w3.org/1999/xlink" width="200" height="200"><defs><style type="text/css"></style></defs><path d="M175 118.9c-18.2 0-33 14.8-33 33v720c0 18.2 14.8 33 33 33s33-14.8 33-33v-720c0-18.3-14.8-33-33-33zM279 346.9h530c6.6 0 12-5.4 12-12v-100c0-6.6-5.4-12-12-12H279c-6.6 0-12 5.4-12 12v100c0 6.6 5.3 12 12 12zM735 673.9H279c-6.6 0-12 5.4-12 12v100c0 6.6 5.4 12 12 12h456c6.6 0 12-5.4 12-12v-100c0-6.7-5.4-12-12-12zM937 448.9H279c-6.6 0-12 5.4-12 12v100c0 6.6 5.4 12 12 12h658c6.6 0 12-5.4 12-12v-100c0-6.7-5.4-12-12-12z" fill="#ffffff" p-id="1440"></path></svg>