<?xml version="1.0" standalone="no"?><!DOCTYPE svg PUBLIC "-//W3C//DTD SVG 1.1//EN" "http://www.w3.org/Graphics/SVG/1.1/DTD/svg11.dtd"><svg t="1535690218415" class="icon" style="" viewBox="0 0 1024 1024" version="1.1" xmlns="http://www.w3.org/2000/svg" p-id="928" xmlns:xlink="http://www.w3.org/1999/xlink" width="200" height="200"><defs><style type="text/css"></style></defs><path d="M957.866667 384h-57.6c-34.133333 0-66.133333-29.866667-68.266667-64 0-183.466667-147.2-320-330.666667-320h-168.533333C149.333333 0 0 147.2 0 330.666667v362.666666C0 876.8 149.333333 1024 332.8 1024h358.4C874.666667 1024 1024 876.8 1024 693.333333v-234.666666c0-36.266667-29.866667-74.666667-66.133333-74.666667zM320 256h192c34.133333 0 64 27.733333 64 64s-29.866667 64-64 64h-192c-36.266667 0-64-29.866667-64-64s29.866667-64 64-64z m384 512H320c-36.266667 0-64-27.733333-64-64 0-34.133333 27.733333-64 64-64h384c36.266667 0 64 29.866667 64 64 0 36.266667-27.733333 64-64 64z" fill="#ffffff" p-id="929"></path></svg>