<?xml version="1.0" standalone="no"?><!DOCTYPE svg PUBLIC "-//W3C//DTD SVG 1.1//EN" "http://www.w3.org/Graphics/SVG/1.1/DTD/svg11.dtd"><svg t="1535690240059" class="icon" style="" viewBox="0 0 1025 1024" version="1.1" xmlns="http://www.w3.org/2000/svg" p-id="1609" xmlns:xlink="http://www.w3.org/1999/xlink" width="200.1953125" height="200"><defs><style type="text/css"></style></defs><path d="M928.376794 409.127863l-0.360772-5.768155c-0.4741-11.419583-6.31301-22.004293-15.72766-28.493792l-48.052231-33.172035 29.558719-51.843435c5.615251-9.886951 6.34459-21.785432 1.931179-32.256814-29.517745-70.087904-77.933746-131.240256-139.963343-176.737702-9.337299-6.824887-21.379088-8.82842-32.363946-5.400987l-55.967029 17.293271-21.634327-55.240888c-4.126792-10.655666-13.062544-18.75015-24.084978-21.857786-74.577067-20.865613-150.102335-20.865613-224.6842 0-11.018037 3.107636-19.953589 11.169141-24.118157 21.824807l-21.635726 55.274067-55.896074-17.293271c-11.018037-3.429033-23.02185-1.384525-32.363946 5.400987-62.097354 45.497246-110.518153 106.649597-140.037496 176.737702-4.413411 10.471382-3.717251 22.402841 1.898 32.256814l29.591698 51.843435-48.052031 33.172035c-9.302721 6.457919-15.143229 16.852149-15.689684 28.1646l-0.327593 5.328632c-0.368567 4.742603-0.656785 9.486804-0.656785 14.262586 0 70.352537 17.548309 140.037296 50.751925 201.589795 5.440362 10.074433 15.251761 17.005053 26.562812 18.756546l57.611589 8.864797-4.191351 58.084091c-0.808089 11.353425 3.679475 22.402841 12.180302 29.919091 57.650965 51.120492 127.994108 85.239129 203.45002 98.662245 2.115263 0.400147 4.270101 0.582832 6.385564 0.582832 9.157812 0 18.060386-3.462012 24.885273-9.816196l41.997458-39.106884 42.032036 39.106884c8.390697 7.814261 19.961584 11.345829 31.267639 9.233365 75.383558-13.421518 145.7283-47.541754 203.412243-98.662245 8.499228-7.51625 12.993188-18.60684 12.226073-29.919091l-4.232325-58.084091 57.611589-8.864797c11.307853-1.751493 21.089272-8.648934 26.561213-18.717171 33.165639-61.51952 50.753524-131.172699 50.753524-201.62917C928.961225 418.061817 928.704387 413.613628 928.376794 409.127863L928.376794 409.127863zM509.370406 620.125713c-110.848943 0-200.710951-89.789653-200.710951-200.638397 0-110.845745 89.828828-200.677772 200.710951-200.677772 110.845745 0 200.674774 89.832026 200.674774 200.677772C710.045179 530.33606 620.216151 620.125713 509.370406 620.125713L509.370406 620.125713zM794.691883 782.816492c-58.887383 47.836367-128.652492 80.052207-203.122427 93.33841-4.341056 0.800094-8.685311 0.61741-12.914438-0.080349l31.856667 120.556208c5.104974 14.119476 16.636286 24.078982 30.899072 26.707721 2.409877 0.436524 4.854532 0.656785 7.264409 0.656785 11.674822 0 22.947897-5.180526 30.866093-14.448469l57.211442-65.495007 106.247851 26.090311c16.456799 4.375635 33.129462-1.097906 42.69042-14.084898 9.521582-12.917436 9.849175-30.576276-0.401546-46.632928L794.691883 782.816492 794.691883 782.816492zM441.284436 876.734336c-2.260371 0-4.559918-0.179487-6.858066-0.620408-77.131853-13.71773-149.196708-47.833169-209.323707-98.443184l-93.22808 133.947945c-8.902574 14.628155-8.349723 31.776317 1.425499 44.766508 9.776821 12.988191 26.050936 18.173714 41.74062 13.902014l106.103143-26.235219 56.664788 65.386276c8.135458 9.413051 19.229047 14.521023 30.865893 14.521023 2.739069 0 5.512916-0.293015 8.245789-0.875846 14.453266-3.028886 25.798895-13.645376 30.358813-28.570943l35.246524-117.95905C442.05315 876.513875 441.686182 876.734336 441.284436 876.734336L441.284436 876.734336z" fill="#ffffff" p-id="1610"></path></svg>